<svg
  width="157"
  height="36"
  viewBox="0 0 157 36"
  fill="none"
  xmlns="http://www.w3.org/2000/svg"
>
<g filter="url(#filter0_d)">
<rect x="4" width="148.273" height="28" rx="6" fill="#0A66C2" />
</g>
<path
    d="M24.6667 20H22V12H24.6667V13.3333C25.2351 12.6102 26.0971 12.179 27.0167 12.158C28.6704 12.1672 30.0048 13.5129 30 15.1667V20H27.3333V15.5C27.2267 14.7551 26.5878 14.2024 25.8353 14.204C25.5062 14.2144 25.1955 14.3585 24.975 14.6031C24.7544 14.8476 24.6431 15.1715 24.6667 15.5V20ZM20.6667 20H18V12H20.6667V20ZM19.3333 10.6667C18.597 10.6667 18 10.0697 18 9.33333C18 8.59695 18.597 8 19.3333 8C20.0697 8 20.6667 8.59695 20.6667 9.33333C20.6667 9.68696 20.5262 10.0261 20.2761 10.2761C20.0261 10.5262 19.687 10.6667 19.3333 10.6667Z"
    fill="white"
  />
<path
    d="M44.354 19L40.112 9.06H41.554L44.9 16.97L48.26 9.06H49.674L45.446 19H44.354ZM52.1684 9.886C52.0097 10.0447 51.8091 10.124 51.5664 10.124C51.3237 10.124 51.1184 10.0447 50.9504 9.886C50.7824 9.718 50.6984 9.51267 50.6984 9.27C50.6984 9.03667 50.7824 8.836 50.9504 8.668C51.1184 8.5 51.3237 8.416 51.5664 8.416C51.8091 8.416 52.0097 8.5 52.1684 8.668C52.3271 8.836 52.4064 9.03667 52.4064 9.27C52.4064 9.51267 52.3271 9.718 52.1684 9.886ZM50.9504 19V12H52.1544V19H50.9504ZM56.5507 19.14C55.9067 19.14 55.3421 19.0047 54.8567 18.734C54.3714 18.454 54.0214 18.048 53.8067 17.516L54.7867 16.97C54.9174 17.3153 55.1461 17.586 55.4727 17.782C55.7994 17.978 56.1634 18.076 56.5647 18.076C56.9101 18.076 57.1994 17.992 57.4327 17.824C57.6661 17.656 57.7827 17.4273 57.7827 17.138C57.7827 16.886 57.6894 16.676 57.5027 16.508C57.3254 16.34 57.0127 16.186 56.5647 16.046L55.8647 15.822C54.6981 15.486 54.1147 14.8047 54.1147 13.778C54.1147 13.1993 54.3434 12.7373 54.8007 12.392C55.2674 12.0373 55.8414 11.86 56.5227 11.86C57.5867 11.86 58.3567 12.266 58.8327 13.078L57.9367 13.694C57.5541 13.162 57.0687 12.896 56.4807 12.896C56.1634 12.896 55.8881 12.9753 55.6547 13.134C55.4307 13.2833 55.3187 13.484 55.3187 13.736C55.3187 13.9693 55.3887 14.17 55.5287 14.338C55.6781 14.4967 55.9394 14.632 56.3127 14.744L57.0827 14.982C58.3521 15.374 58.9867 16.06 58.9867 17.04C58.9867 17.6933 58.7581 18.2067 58.3007 18.58C57.8527 18.9533 57.2694 19.14 56.5507 19.14ZM61.9575 9.886C61.7988 10.0447 61.5981 10.124 61.3555 10.124C61.1128 10.124 60.9075 10.0447 60.7395 9.886C60.5715 9.718 60.4875 9.51267 60.4875 9.27C60.4875 9.03667 60.5715 8.836 60.7395 8.668C60.9075 8.5 61.1128 8.416 61.3555 8.416C61.5981 8.416 61.7988 8.5 61.9575 8.668C62.1161 8.836 62.1955 9.03667 62.1955 9.27C62.1955 9.51267 62.1161 9.718 61.9575 9.886ZM60.7395 19V12H61.9435V19H60.7395ZM66.9418 19.07C66.2978 19.07 65.7798 18.888 65.3878 18.524C64.9958 18.16 64.7998 17.628 64.7998 16.928V13.106H63.3158V12H64.7998V10.054H66.0038V12H68.0198V13.106H66.0038V16.774C66.0038 17.2127 66.0971 17.5207 66.2838 17.698C66.4705 17.8753 66.7645 17.964 67.1658 17.964C67.5205 17.964 67.8051 17.9173 68.0198 17.824V18.902C67.6838 19.014 67.3245 19.07 66.9418 19.07ZM71.4199 19L75.8159 9.06H76.8939L81.3039 19H79.9459L78.6579 16.102H74.0239L72.7639 19H71.4199ZM76.3339 10.824L74.5419 14.926H78.1399L76.3339 10.824ZM85.504 19.14C84.4494 19.14 83.572 18.79 82.872 18.09C82.1814 17.39 81.836 16.5267 81.836 15.5C81.836 14.4733 82.1814 13.61 82.872 12.91C83.572 12.21 84.4494 11.86 85.504 11.86C86.2134 11.86 86.848 12.028 87.408 12.364C87.9774 12.7 88.4207 13.1573 88.738 13.736L87.688 14.324C87.4827 13.9133 87.1887 13.5867 86.806 13.344C86.4327 13.1013 85.9987 12.98 85.504 12.98C84.7854 12.98 84.1974 13.2227 83.74 13.708C83.2827 14.1933 83.054 14.7907 83.054 15.5C83.054 16.2093 83.2827 16.8067 83.74 17.292C84.1974 17.7773 84.7854 18.02 85.504 18.02C85.9987 18.02 86.4327 17.8987 86.806 17.656C87.1887 17.4133 87.4827 17.0867 87.688 16.676L88.738 17.264C88.4207 17.8427 87.9774 18.3 87.408 18.636C86.848 18.972 86.2134 19.14 85.504 19.14ZM93.4201 19.14C92.3654 19.14 91.4881 18.79 90.7881 18.09C90.0974 17.39 89.7521 16.5267 89.7521 15.5C89.7521 14.4733 90.0974 13.61 90.7881 12.91C91.4881 12.21 92.3654 11.86 93.4201 11.86C94.1294 11.86 94.7641 12.028 95.3241 12.364C95.8934 12.7 96.3367 13.1573 96.6541 13.736L95.6041 14.324C95.3987 13.9133 95.1047 13.5867 94.7221 13.344C94.3487 13.1013 93.9147 12.98 93.4201 12.98C92.7014 12.98 92.1134 13.2227 91.6561 13.708C91.1987 14.1933 90.9701 14.7907 90.9701 15.5C90.9701 16.2093 91.1987 16.8067 91.6561 17.292C92.1134 17.7773 92.7014 18.02 93.4201 18.02C93.9147 18.02 94.3487 17.8987 94.7221 17.656C95.1047 17.4133 95.3987 17.0867 95.6041 16.676L96.6541 17.264C96.3367 17.8427 95.8934 18.3 95.3241 18.636C94.7641 18.972 94.1294 19.14 93.4201 19.14ZM101.322 19.14C100.267 19.14 99.3901 18.79 98.6901 18.09C97.9994 17.3807 97.6541 16.5173 97.6541 15.5C97.6541 14.4827 97.9994 13.624 98.6901 12.924C99.3901 12.2147 100.267 11.86 101.322 11.86C102.367 11.86 103.235 12.2147 103.926 12.924C104.626 13.624 104.976 14.4827 104.976 15.5C104.976 16.5173 104.626 17.3807 103.926 18.09C103.235 18.79 102.367 19.14 101.322 19.14ZM99.5581 17.292C100.015 17.7773 100.603 18.02 101.322 18.02C102.041 18.02 102.624 17.7773 103.072 17.292C103.52 16.8067 103.744 16.2093 103.744 15.5C103.744 14.7907 103.52 14.1933 103.072 13.708C102.624 13.2227 102.041 12.98 101.322 12.98C100.603 12.98 100.015 13.2227 99.5581 13.708C99.1101 14.1933 98.8861 14.7907 98.8861 15.5C98.8861 16.2093 99.1101 16.8067 99.5581 17.292ZM109.182 19.14C108.417 19.14 107.796 18.8833 107.32 18.37C106.844 17.8473 106.606 17.1567 106.606 16.298V12H107.81V16.116C107.81 16.704 107.95 17.1707 108.23 17.516C108.52 17.8613 108.907 18.034 109.392 18.034C109.952 18.034 110.414 17.8053 110.778 17.348C111.152 16.8813 111.338 16.256 111.338 15.472V12H112.542V19H111.338V17.922C110.881 18.734 110.162 19.14 109.182 19.14ZM114.812 19V12H116.016V13.078C116.492 12.266 117.234 11.86 118.242 11.86C119.035 11.86 119.674 12.1167 120.16 12.63C120.645 13.1433 120.888 13.8293 120.888 14.688V19H119.698V14.87C119.698 14.282 119.548 13.82 119.25 13.484C118.951 13.1387 118.55 12.966 118.046 12.966C117.467 12.966 116.982 13.1947 116.59 13.652C116.207 14.1093 116.016 14.7347 116.016 15.528V19H114.812ZM125.69 19.07C125.046 19.07 124.528 18.888 124.136 18.524C123.744 18.16 123.548 17.628 123.548 16.928V13.106H122.064V12H123.548V10.054H124.752V12H126.768V13.106H124.752V16.774C124.752 17.2127 124.845 17.5207 125.032 17.698C125.219 17.8753 125.513 17.964 125.914 17.964C126.269 17.964 126.553 17.9173 126.768 17.824V18.902C126.432 19.014 126.073 19.07 125.69 19.07Z"
    fill="white"
  />
<defs>
<filter
      id="filter0_d"
      x="0"
      y="0"
      width="156.273"
      height="36"
      filterUnits="userSpaceOnUse"
      color-interpolation-filters="sRGB"
    >
<feFlood flood-opacity="0" result="BackgroundImageFix" />
<feColorMatrix
        in="SourceAlpha"
        type="matrix"
        values="0 0 0 0 0 0 0 0 0 0 0 0 0 0 0 0 0 0 127 0"
        result="hardAlpha"
      />
<feOffset dy="4" />
<feGaussianBlur stdDeviation="2" />
<feComposite in2="hardAlpha" operator="out" />
<feColorMatrix
        type="matrix"
        values="0 0 0 0 0 0 0 0 0 0 0 0 0 0 0 0 0 0 0.25 0"
      />
<feBlend mode="normal" in2="BackgroundImageFix" result="effect1_dropShadow" />
<feBlend
        mode="normal"
        in="SourceGraphic"
        in2="effect1_dropShadow"
        result="shape"
      />
</filter>
</defs>
</svg>
