<svg
  width="134"
  height="129"
  viewBox="0 0 134 129"
  fill="none"
  xmlns="http://www.w3.org/2000/svg"
>
<g filter="url(#filter0_d)">
<path
      d="M66.3541 5.94216C69.985 38.564 100.544 52.6234 123.517 54.7198C126.817 55.021 129.5 57.6863 129.5 61V114.5C129.5 117.814 126.814 120.5 123.5 120.5L10 120.5C6.68629 120.5 4 117.814 4 114.5L4 6C4 2.68629 6.68629 0 10 0H60.0597C63.35 0 65.9901 2.67206 66.3541 5.94216Z"
      fill="url(#paint0_linear)"
    />
</g>
<circle
    cx="102.5"
    cy="92.5"
    r="7"
    transform="rotate(-180 102.5 92.5)"
    fill="#403D50"
  />
<rect
    x="99.1045"
    y="98.7026"
    width="2"
    height="14"
    transform="rotate(-143.173 99.1045 98.7026)"
    fill="#22212B"
  />
<circle
    cx="29.5001"
    cy="20.5002"
    r="7"
    transform="rotate(117.699 29.5001 20.5002)"
    fill="#403D50"
  />
<rect
    x="33.4136"
    y="26.3896"
    width="2"
    height="14"
    transform="rotate(154.526 33.4136 26.3896)"
    fill="#22212B"
  />
<defs>
<filter
      id="filter0_d"
      x="0"
      y="0"
      width="133.5"
      height="128.5"
      filterUnits="userSpaceOnUse"
      color-interpolation-filters="sRGB"
    >
<feFlood flood-opacity="0" result="BackgroundImageFix" />
<feColorMatrix
        in="SourceAlpha"
        type="matrix"
        values="0 0 0 0 0 0 0 0 0 0 0 0 0 0 0 0 0 0 127 0"
        result="hardAlpha"
      />
<feOffset dy="4" />
<feGaussianBlur stdDeviation="2" />
<feComposite in2="hardAlpha" operator="out" />
<feColorMatrix
        type="matrix"
        values="0 0 0 0 0 0 0 0 0 0 0 0 0 0 0 0 0 0 0.25 0"
      />
<feBlend mode="normal" in2="BackgroundImageFix" result="effect1_dropShadow" />
<feBlend
        mode="normal"
        in="SourceGraphic"
        in2="effect1_dropShadow"
        result="shape"
      />
</filter>
<linearGradient
      id="paint0_linear"
      x1="66.75"
      y1="120.5"
      x2="66.75"
      y2="0"
      gradientUnits="userSpaceOnUse"
    >
<stop stop-color="#CEBE2D" />
<stop offset="1" stop-color="#C3780A" />
</linearGradient>
</defs>
</svg>
