<svg xmlns="http://www.w3.org/2000/svg" xmlns:xlink="http://www.w3.org/1999/xlink" viewBox="0 0 314.03 237.38"><defs><style>.cls-1,.cls-3,.cls-4,.cls-5,.cls-6,.cls-7{fill:#1a1a1a;stroke-miterlimit:10;stroke-width:3px;}.cls-1{stroke:url(#Новый_образец_градиента);}.cls-2{fill:url(#Новый_образец_градиента-2);}.cls-3{stroke:url(#Новый_образец_градиента-3);}.cls-4{stroke:url(#Новый_образец_градиента-4);}.cls-5{stroke:url(#Новый_образец_градиента-5);}.cls-6{stroke:url(#Новый_образец_градиента-6);}.cls-7{stroke:url(#Новый_образец_градиента-7);}</style><linearGradient id="Новый_образец_градиента" y1="59" x2="118" y2="59" gradientUnits="userSpaceOnUse"><stop offset="0" stop-color="#c8992e"/><stop offset="0.15" stop-color="#b57e10"/><stop offset="0.43" stop-color="#f9df7b"/><stop offset="0.59" stop-color="#fff3a6"/><stop offset="0.73" stop-color="#f9df7b"/><stop offset="0.93" stop-color="#b57e10"/><stop offset="0.94" stop-color="#b98416"/><stop offset="1" stop-color="#cda035"/></linearGradient><linearGradient id="Новый_образец_градиента-2" x1="28.74" y1="59" x2="89.26" y2="59" xlink:href="#Новый_образец_градиента"/><linearGradient id="Новый_образец_градиента-3" x1="69.12" y1="175.26" x2="124.55" y2="175.26" xlink:href="#Новый_образец_градиента"/><linearGradient id="Новый_образец_градиента-4" x1="169.46" y1="174.69" x2="249.15" y2="174.69" xlink:href="#Новый_образец_градиента"/><linearGradient id="Новый_образец_градиента-5" x1="122.34" y1="174.69" x2="174.09" y2="174.69" xlink:href="#Новый_образец_градиента"/><linearGradient id="Новый_образец_градиента-6" x1="252.34" y1="174.99" x2="314.03" y2="174.99" xlink:href="#Новый_образец_градиента"/><linearGradient id="Новый_образец_градиента-7" x1="12.8" y1="174.99" x2="74.5" y2="174.99" xlink:href="#Новый_образец_градиента"/></defs><g id="Слой_2" data-name="Слой 2"><g id="Слой_1-2" data-name="Слой 1"><path class="cls-1" d="M115,55.45,102.49,42.91V54.25L107.24,59l-6.11,6.11V21.9a5,5,0,0,0-5-5H76.55L62.56,3a5,5,0,0,0-7.11,0L42.91,15.51H54.26L59,10.76l6.15,6.11H21.9a5,5,0,0,0-5,5V41.52L3,55.45a5,5,0,0,0,0,7.11L15.44,75V63.68L10.76,59l6.11-6.12V96.11a5,5,0,0,0,5,5H41.52L55.44,115a5,5,0,0,0,7.11,0l12.56-12.55H63.77L59,107.25l-6.12-6.11H96.1a5,5,0,0,0,5-5V76.45L115,62.56A5,5,0,0,0,115,55.45ZM93.58,93.58H45.31L25.72,74V85.36L34,93.58H24.43V45.31L44.08,25.63H32.74L24.43,34V24.43H72.75L92.21,43.78V32.44l-8.06-8h9.43V72.67L74,92.2H85.38L93.58,84Z"/><path class="cls-2" d="M56.33,29.85,29.85,56.33a3.78,3.78,0,0,0,0,5.35L56.33,88.16a3.8,3.8,0,0,0,5.35,0L88.16,61.68a3.8,3.8,0,0,0,0-5.35L61.68,29.85A3.78,3.78,0,0,0,56.33,29.85ZM46,73.66a.26.26,0,0,1-.28-.39,8.13,8.13,0,0,0,1.2-6.79c-1.23-4-4.33-10.81-2.63-14.85s6.67-12,15.85-11.75c7.33.18,10.19,1.08,11,1.43a.26.26,0,0,1,.1.4L65.16,49.2a.26.26,0,0,1-.29.07L62.11,48.1a10.11,10.11,0,0,0-3.79-.85,5.93,5.93,0,0,0-2.49.43c-4,1.72-6.91,5.28-6.38,12.55C50.23,70.83,49.9,72.74,46,73.66ZM73.9,65l-2.32-.33a.25.25,0,0,1-.19-.14L70.1,61.76a.27.27,0,0,0-.13-.13L63,58.8a.25.25,0,0,0-.34.3l.64,2.46a.22.22,0,0,0,.12.16l7.16,3.85a.23.23,0,0,1,.13.19l1.33,9.85a.26.26,0,0,1-.35.27l-9-3.44a.26.26,0,0,1,0-.46L65,70.56a.26.26,0,0,0-.08-.47l-9.29-2a.26.26,0,0,0-.24.07l-2.93,3.22a.25.25,0,0,1-.44-.18c.07-1.2.21-3.67.3-5.46a8.56,8.56,0,0,0-.75-4l0-.06a7.81,7.81,0,0,1-.69-3.72v-.11a11.7,11.7,0,0,1,.3-2v0A12.9,12.9,0,0,1,53.51,51h0A6,6,0,0,1,60.56,49l3.85,1.55A12.48,12.48,0,0,1,70,55.81l4.19,8.84A.27.27,0,0,1,73.9,65Z"/><path class="cls-3" d="M102.15,184.47v-52.4l6.56,6.57a2.76,2.76,0,0,0,3.91,0l9.63-9.63a2.77,2.77,0,0,0,0-3.9l-9.63-9.63a2.76,2.76,0,0,0-3.91,0l-9.66,9.67a2.77,2.77,0,0,1-3.87,0L85,115.4a2.76,2.76,0,0,0-3.86,0l-9.67,9.67a2.75,2.75,0,0,0,0,3.9L82.2,139.78a2.78,2.78,0,0,1,.81,2v79.89a2.76,2.76,0,0,0,.78,1.92L94.89,235a2.75,2.75,0,0,0,3.93,0l9.6-9.6a2.75,2.75,0,0,0,0-3.9L103,216.12a2.76,2.76,0,0,1-.81-2V184.47Z"/><path class="cls-4" d="M246.84,220l-5.46-5.46a2.76,2.76,0,0,1-.81-1.95V132.26a2.76,2.76,0,0,0-1.61-2.51l-24-11a2.75,2.75,0,0,0-3.1.55L201,130.16l-4.06-3.63-.11-.11L185.31,114.9a2.76,2.76,0,0,0-3.91,0l-9.63,9.62a2.78,2.78,0,0,0,0,3.91l10.77,10.77a2.76,2.76,0,0,1,.81,2V221a2.74,2.74,0,0,0,.78,1.92l11.1,11.49a2.76,2.76,0,0,0,3.94,0l9.59-9.59a2.76,2.76,0,0,0,0-3.91l-5.46-5.46a2.76,2.76,0,0,1-.81-1.95V132.72a2.48,2.48,0,0,0,0-.27l17.11,5.91a2.78,2.78,0,0,1,1.86,2.61V220a2.74,2.74,0,0,0,.78,1.92l11.1,11.49a2.75,2.75,0,0,0,3.93,0l9.6-9.59A2.76,2.76,0,0,0,246.84,220Z"/><path class="cls-5" d="M161.47,225a2.77,2.77,0,0,1-4-.17L142.5,207.51a2.59,2.59,0,0,1-.87-1.93V183.16a2.57,2.57,0,0,1,.48-1.49l30-41.86a2.55,2.55,0,0,0-.27-3.31l-21.12-21.12a2.57,2.57,0,0,0-3.58,0l-10.72,10.24-11.75,10.94a2.57,2.57,0,0,0-.82,1.88v74.21a2.55,2.55,0,0,0,.73,1.79L143.74,234a2.56,2.56,0,0,0,1.83.77H160.4a2.56,2.56,0,0,0,2.29-1.42l4.09-8.18a2,2,0,0,0-3.09-2.3ZM155,142.59l-13.34,33.92v-46Z"/><path class="cls-6" d="M311.15,220.64l-3.57-3.57a4.71,4.71,0,0,1-1.38-3.34V148.21a4.72,4.72,0,0,0-1.29-3.24l-12.2-12.87-16.63-16.63a4.72,4.72,0,0,0-6.67,0l-3.4,3.39a3.21,3.21,0,0,0-.41.34L254.68,130a2.81,2.81,0,0,0-.84,2v87a2.83,2.83,0,0,0,2.83,2.83h13.62a2.83,2.83,0,0,0,2.83-2.83V176.51h13.47v27.84l.08,17.61a4.77,4.77,0,0,0,1.38,3.31l9.24,9.23a4.72,4.72,0,0,0,6.67,0l7.19-7.19A4.72,4.72,0,0,0,311.15,220.64Zm-38-53.54V140.24l5.72,5.72,6.37,6.37a4.67,4.67,0,0,1,1.38,3.33V167.1Z"/><path class="cls-7" d="M71.61,220.64,68,217.07a4.76,4.76,0,0,1-1.38-3.34V148.21A4.72,4.72,0,0,0,65.37,145L53.17,132.1,36.54,115.47a4.72,4.72,0,0,0-6.67,0l-3.39,3.39a2.72,2.72,0,0,0-.42.34L15.14,130a2.85,2.85,0,0,0-.84,2v87a2.83,2.83,0,0,0,2.83,2.83H30.75A2.83,2.83,0,0,0,33.58,219V176.51H47.05v27.84L47.13,222a4.74,4.74,0,0,0,1.39,3.31l9.23,9.23a4.72,4.72,0,0,0,6.67,0l7.19-7.19A4.7,4.7,0,0,0,71.61,220.64Zm-38-53.54V140.24L39.3,146l6.37,6.37a4.67,4.67,0,0,1,1.38,3.33V167.1Z"/></g></g></svg>