<svg
  width="130"
  height="121"
  viewBox="0 0 130 121"
  fill="none"
  xmlns="http://www.w3.org/2000/svg"
>
<g filter="url(#filter0_d)">
<path
      d="M62.3541 5.94216C65.985 38.564 96.5442 52.6234 119.517 54.7198C122.817 55.021 125.5 57.6863 125.5 61V114.5C125.5 117.814 122.814 120.5 119.5 120.5H6C2.68629 120.5 0 117.814 0 114.5V6C0 2.68629 2.68629 0 6 0H56.0597C59.35 0 61.9901 2.67206 62.3541 5.94216Z"
      fill="url(#paint0_linear)"
    />
</g>
<circle
    cx="98.5"
    cy="92.5"
    r="7"
    transform="rotate(-180 98.5 92.5)"
    fill="#403D50"
  />
<rect
    x="95.1045"
    y="98.7026"
    width="2"
    height="14"
    transform="rotate(-143.173 95.1045 98.7026)"
    fill="#22212B"
  />
<circle
    cx="25.5001"
    cy="20.5002"
    r="7"
    transform="rotate(117.699 25.5001 20.5002)"
    fill="#403D50"
  />
<rect
    x="29.4136"
    y="26.3895"
    width="2"
    height="14"
    transform="rotate(154.526 29.4136 26.3895)"
    fill="#22212B"
  />
<defs>
<filter
      id="filter0_d"
      x="-4"
      y="0"
      width="133.5"
      height="128.5"
      filterUnits="userSpaceOnUse"
      color-interpolation-filters="sRGB"
    >
<feFlood flood-opacity="0" result="BackgroundImageFix" />
<feColorMatrix
        in="SourceAlpha"
        type="matrix"
        values="0 0 0 0 0 0 0 0 0 0 0 0 0 0 0 0 0 0 127 0"
        result="hardAlpha"
      />
<feOffset dy="4" />
<feGaussianBlur stdDeviation="2" />
<feComposite in2="hardAlpha" operator="out" />
<feColorMatrix
        type="matrix"
        values="0 0 0 0 0 0 0 0 0 0 0 0 0 0 0 0 0 0 0.25 0"
      />
<feBlend mode="normal" in2="BackgroundImageFix" result="effect1_dropShadow" />
<feBlend
        mode="normal"
        in="SourceGraphic"
        in2="effect1_dropShadow"
        result="shape"
      />
</filter>
<linearGradient
      id="paint0_linear"
      x1="62.75"
      y1="120.5"
      x2="62.75"
      y2="0"
      gradientUnits="userSpaceOnUse"
    >
<stop stop-color="#CEBE2D" />
<stop offset="1" stop-color="#C3780A" />
</linearGradient>
</defs>
</svg>
