<svg
  width="125"
  height="124"
  viewBox="0 0 125 124"
  fill="none"
  xmlns="http://www.w3.org/2000/svg"
>
<g filter="url(#filter0_d)">
<path
      d="M10.4422 63.6459C43.064 60.015 57.1234 29.4558 59.2198 6.48336C59.521 3.18337 62.1863 0.5 65.5 0.5L119 0.5C122.314 0.5 125 3.18629 125 6.5L125 120C125 123.314 122.314 126 119 126L10.5 126C7.18629 126 4.5 123.314 4.5 120V69.9403C4.5 66.65 7.17206 64.0099 10.4422 63.6459Z"
      fill="url(#paint0_linear)"
    />
</g>
<circle cx="97" cy="27.5" r="7" transform="rotate(90 97 27.5)" fill="#403D50" />
<rect
    x="103.203"
    y="30.8953"
    width="2"
    height="14"
    transform="rotate(126.827 103.203 30.8953)"
    fill="#22212B"
  />
<circle
    cx="25.0002"
    cy="100.5"
    r="7"
    transform="rotate(27.6989 25.0002 100.5)"
    fill="#403D50"
  />
<rect
    x="30.8896"
    y="96.5864"
    width="2"
    height="14"
    transform="rotate(64.5256 30.8896 96.5864)"
    fill="#22212B"
  />
<defs>
<filter
      id="filter0_d"
      x="0.5"
      y="0.5"
      width="128.5"
      height="133.5"
      filterUnits="userSpaceOnUse"
      color-interpolation-filters="sRGB"
    >
<feFlood flood-opacity="0" result="BackgroundImageFix" />
<feColorMatrix
        in="SourceAlpha"
        type="matrix"
        values="0 0 0 0 0 0 0 0 0 0 0 0 0 0 0 0 0 0 127 0"
        result="hardAlpha"
      />
<feOffset dy="4" />
<feGaussianBlur stdDeviation="2" />
<feComposite in2="hardAlpha" operator="out" />
<feColorMatrix
        type="matrix"
        values="0 0 0 0 0 0 0 0 0 0 0 0 0 0 0 0 0 0 0.25 0"
      />
<feBlend mode="normal" in2="BackgroundImageFix" result="effect1_dropShadow" />
<feBlend
        mode="normal"
        in="SourceGraphic"
        in2="effect1_dropShadow"
        result="shape"
      />
</filter>
<linearGradient
      id="paint0_linear"
      x1="125"
      y1="63.25"
      x2="4.5"
      y2="63.25"
      gradientUnits="userSpaceOnUse"
    >
<stop stop-color="#CEBE2D" />
<stop offset="1" stop-color="#C3780A" />
</linearGradient>
</defs>
</svg>
