<svg
  xmlns="http://www.w3.org/2000/svg"
  xmlns:xlink="http://www.w3.org/1999/xlink"
  viewBox="0 0 86.74 86.74"
><defs><style
    >.cls-1{fill:#1a1a1a;}.cls-2{fill:url(#Новый_образец_градиента);}</style><linearGradient
      id="Новый_образец_градиента"
      x1="20.55"
      y1="43.37"
      x2="66.19"
      y2="43.37"
      gradientUnits="userSpaceOnUse"
    ><stop offset="0" stop-color="#c8992e" /><stop
        offset="0.15"
        stop-color="#b57e10"
      /><stop offset="0.43" stop-color="#f9df7b" /><stop
        offset="0.59"
        stop-color="#fff3a6"
      /><stop offset="0.73" stop-color="#f9df7b" /><stop
        offset="0.93"
        stop-color="#b57e10"
      /><stop offset="0.94" stop-color="#b98416" /><stop
        offset="1"
        stop-color="#cda035"
      /></linearGradient></defs><g id="Слой_2" data-name="Слой 2"><g
      id="Слой_1-2"
      data-name="Слой 1"
    ><path
        class="cls-1"
        d="M85.63,40.69l-9.46-9.46v8.55l3.59,3.59L75.15,48V15.39a3.8,3.8,0,0,0-3.8-3.8H56.61L46.05,1.11a3.79,3.79,0,0,0-5.36,0l-9.45,9.46h8.55L43.37,7,48,11.59H15.39a3.8,3.8,0,0,0-3.8,3.8v14.8L1.11,40.69a3.79,3.79,0,0,0,0,5.36l9.4,9.41V46.9L7,43.37l4.61-4.61v32.6a3.8,3.8,0,0,0,3.8,3.79h14.8l10.5,10.48a3.79,3.79,0,0,0,5.36,0l9.47-9.47H47l-3.6,3.6-4.62-4.61h32.6a3.8,3.8,0,0,0,3.8-3.79V56.53L85.63,46.06A3.8,3.8,0,0,0,85.63,40.69ZM69.45,69.45H33.05L18.27,54.7v8.55l6.21,6.2H17.29V33.05L32.11,18.2H23.56l-6.27,6.28V17.29H53.74l14.68,14.6V23.34l-6.08-6.05h7.11V53.68L54.71,68.41h8.56l6.18-6.18Z"
      /><path
        class="cls-2"
        d="M41.35,21.38l-20,20a2.85,2.85,0,0,0,0,4l20,20a2.85,2.85,0,0,0,4,0l20-20a2.85,2.85,0,0,0,0-4l-20-20A2.87,2.87,0,0,0,41.35,21.38Zm-7.77,33a.19.19,0,0,1-.21-.29,6.17,6.17,0,0,0,.9-5.12c-.92-3-3.26-8.16-2-11.2s5-9,12-8.86c5.53.14,7.69.81,8.33,1.08a.19.19,0,0,1,.07.3L48,36a.2.2,0,0,1-.23.06l-2.07-.88a7.89,7.89,0,0,0-2.86-.65,4.55,4.55,0,0,0-1.89.33c-3,1.3-5.2,4-4.8,9.46C36.76,52.29,36.51,53.73,33.58,54.42Zm21-6.51-1.75-.25a.19.19,0,0,1-.15-.11l-1-2.1a.19.19,0,0,0-.1-.1l-5.23-2.13a.19.19,0,0,0-.26.23l.48,1.85a.2.2,0,0,0,.1.12l5.39,2.9a.16.16,0,0,1,.1.14l1,7.44a.19.19,0,0,1-.26.2l-6.78-2.59a.2.2,0,0,1,0-.35l1.76-1.07a.19.19,0,0,0-.06-.35l-7-1.53a.19.19,0,0,0-.18.06L38.46,52.7a.19.19,0,0,1-.33-.14c0-.9.15-2.76.23-4.12a6.58,6.58,0,0,0-.57-3l0,0a6,6,0,0,1-.52-2.81v-.08A7.85,7.85,0,0,1,37.49,41v0a9.65,9.65,0,0,1,1.74-3.62h0a4.56,4.56,0,0,1,5.32-1.46L47.45,37a9.37,9.37,0,0,1,4.2,4l3.16,6.66A.2.2,0,0,1,54.61,47.91Z"
      /></g></g></svg>
